<svg version="1.0" xmlns="http://www.w3.org/2000/svg"
 width="2560.000000pt" height="489.000000pt" viewBox="0 0 2560.000000 489.000000"
 preserveAspectRatio="xMidYMid meet">

<g transform="translate(0.000000,489.000000) scale(0.100000,-0.100000)"
fill="#000000" stroke="none">
<path d="M8618 3853 l-3 -1037 -29 45 c-234 356 -749 518 -1332 419 -799 -137
-1286 -806 -1250 -1720 18 -463 156 -828 416 -1103 306 -323 771 -484 1292
-447 425 31 714 163 902 413 l36 48 2 -233 3 -233 428 -3 427 -2 0 2445 0
2445 -445 0 -445 0 -2 -1037z m-598 -1278 c159 -51 265 -118 375 -237 168
-181 249 -413 248 -703 -1 -209 -41 -364 -136 -530 -52 -91 -199 -238 -292
-293 -144 -84 -342 -130 -509 -117 -326 25 -577 195 -716 486 -150 315 -123
767 65 1054 55 85 179 204 263 255 153 90 278 121 477 116 120 -3 152 -7 225
-31z"/>
<path d="M11180 3303 c-19 -2 -84 -13 -145 -24 -700 -130 -1187 -658 -1276
-1382 -15 -124 -7 -441 15 -555 72 -387 222 -666 490 -910 339 -309 881 -469
1431 -423 423 35 741 163 983 395 117 112 202 229 277 381 72 144 83 180 63
188 -7 2 -174 68 -371 146 -197 78 -362 139 -368 136 -5 -4 -9 -11 -9 -16 0
-6 -13 -44 -29 -84 -95 -236 -272 -386 -518 -437 -82 -17 -123 -19 -248 -15
-182 6 -266 26 -415 99 -91 45 -117 64 -196 143 -78 77 -98 105 -138 187 -47
97 -86 240 -86 321 l0 37 1119 0 c1058 0 1120 1 1125 18 23 76 31 180 30 387
0 248 -13 344 -70 514 -167 497 -577 808 -1172 886 -103 14 -394 18 -492 8z
m404 -658 c289 -60 476 -259 476 -507 l0 -58 -710 0 c-390 0 -710 1 -710 3 0
22 41 129 73 192 95 182 286 324 497 369 88 19 283 20 374 1z"/>
<path d="M14480 3303 c-90 -9 -262 -47 -358 -79 -585 -190 -974 -672 -1058
-1308 -12 -90 -15 -167 -11 -301 9 -299 62 -516 183 -755 80 -156 164 -269
291 -390 251 -241 564 -386 963 -446 160 -25 492 -25 650 -1 290 45 533 139
718 277 99 73 234 214 301 314 56 83 171 310 171 338 0 12 -91 52 -371 163
-204 81 -374 143 -379 139 -4 -5 -15 -34 -25 -64 -77 -243 -273 -418 -530
-471 -139 -29 -359 -23 -487 14 -241 69 -417 207 -517 404 -31 61 -68 198 -76
280 l-7 73 1123 2 1124 3 14 70 c11 50 15 141 15 320 0 222 -2 261 -22 352
-132 603 -555 970 -1220 1058 -103 14 -394 18 -492 8z m455 -668 c255 -70 425
-268 425 -492 l0 -63 -710 0 -710 0 6 28 c11 48 64 168 95 217 98 155 277 276
473 321 83 19 338 12 421 -11z"/>
<path d="M16440 2925 l0 -385 872 -2 872 -3 -902 -885 -902 -884 0 -383 0
-383 1490 0 1490 0 0 400 0 400 -932 2 -932 3 907 883 907 883 0 370 0 369
-1435 0 -1435 0 0 -385z"/>
<path d="M20805 3294 c-263 -40 -495 -129 -700 -267 -124 -84 -314 -276 -394
-397 -274 -416 -350 -972 -205 -1483 155 -541 565 -929 1138 -1077 378 -97
839 -89 1186 22 338 108 593 309 764 601 49 84 104 200 120 253 6 19 -23 32
-369 169 -206 81 -377 146 -378 144 -2 -2 -16 -38 -31 -80 -95 -266 -291 -425
-577 -470 -93 -14 -321 -6 -408 16 -264 65 -468 230 -562 454 -31 76 -59 199
-59 266 l0 45 1119 0 1120 0 10 53 c36 179 38 467 6 650 -77 431 -312 755
-684 942 -165 84 -364 140 -576 165 -125 14 -412 11 -520 -6z m510 -658 c167
-45 312 -152 374 -274 37 -73 63 -178 59 -236 l-3 -41 -709 -3 -709 -2 7 31
c3 17 17 57 30 90 93 230 282 386 538 444 83 19 329 14 413 -9z"/>
<path d="M22947 3303 c-4 -3 -7 -748 -7 -1655 l0 -1648 450 0 450 0 0 1099 c0
1175 0 1186 49 1297 75 170 228 261 422 252 69 -3 96 -9 149 -34 156 -75 246
-230 258 -442 l5 -102 431 2 431 3 3 125 c4 154 -11 321 -39 425 -120 459
-509 718 -1013 674 -297 -26 -524 -173 -667 -433 l-29 -51 0 248 0 247 -443 0
c-244 0 -447 -3 -450 -7z"/>
<path d="M4233 1923 l-243 -3 0 -70 0 -70 545 0 545 0 0 75 0 75 -302 -2
c-167 -2 -412 -4 -545 -5z"/>
<path d="M2366 1849 l-60 -64 58 -3 c32 -2 60 -1 63 1 2 3 3 33 1 67 l-3 63
-59 -64z"/>
<path d="M2050 1508 c-18 -41 -220 -602 -220 -610 0 -4 135 -8 300 -8 l300 0
0 320 0 320 -185 0 c-183 0 -186 0 -195 -22z"/>
<path d="M2670 1210 l0 -320 545 0 545 0 0 320 0 320 -545 0 -545 0 0 -320z"/>
<path d="M3990 1210 l0 -320 545 0 545 0 0 320 0 320 -545 0 -545 0 0 -320z"/>
<path d="M1590 320 l0 -320 420 0 420 0 0 320 0 320 -420 0 -420 0 0 -320z"/>
<path d="M2670 320 l0 -320 545 0 545 0 0 320 0 320 -545 0 -545 0 0 -320z"/>
<path d="M3990 320 l0 -320 545 0 545 0 0 320 0 320 -545 0 -545 0 0 -320z"/>
</g>
</svg>
